<?xml version="1.0" encoding="UTF-8"?>
<svg width="193px" height="29px" viewBox="0 0 193 29" version="1.1" xmlns="http://www.w3.org/2000/svg" xmlns:xlink="http://www.w3.org/1999/xlink">
    <!-- Generator: sketchtool 64 (101010) - https://sketch.com -->
    <title>D65C1125-601A-45AC-A404-A90D5880E9F3</title>
    <desc>Created with sketchtool.</desc>
    <defs>
        <polygon id="path-1" points="0 28.2564103 192.975615 28.2564103 192.975615 0.0125347985 0 0.0125347985"></polygon>
    </defs>
    <g id="Designs" stroke="none" stroke-width="1" fill="none" fill-rule="evenodd">
        <g id="App" transform="translate(-30.000000, -33.000000)">
            <g id="Top-navigation" transform="translate(0.000000, 28.000000)">
                <g id="LOGO-white" transform="translate(30.000000, 5.000000)">
                    <path d="M41.5010403,15.41802 L41.5010403,23.1443954 L39.8322866,23.1443954 L39.8322866,15.41802 C39.8322866,13.1781683 38.5933941,11.8693441 36.3936637,11.8693441 C34.1686944,11.8693441 32.2976562,13.1781683 32.2976562,16.550454 L32.2976562,23.1443954 L30.6289559,23.1443954 L30.6289559,6.47582216 L32.2976562,5.52710788 L32.2976562,12.52365 C33.2837331,10.9381042 34.7501489,10.2586225 36.5453637,10.2586225 C39.6300021,10.2586225 41.5010403,12.2721042 41.5010403,15.41802" id="Fill-2" fill="#FFFFFF"></path>
                    <path d="M45.264711,16.0723418 L54.6956184,16.0723418 C54.3416339,13.3038509 52.318949,11.8693601 50.1445108,11.8693601 C47.4897337,11.8693601 45.5934033,13.6059077 45.264711,16.0723418 M56.4149565,16.9028784 C56.4149565,17.1545835 56.3896643,17.4313582 56.364372,17.6830634 L45.264711,17.6830634 C45.6186422,20.2502007 47.6160881,21.8357465 50.2962109,21.8357465 C52.2936568,21.8357465 53.6842493,20.9045597 54.3669261,19.6965451 L55.8333953,20.5520982 C54.7714951,22.2635231 52.8246336,23.4464681 50.2709186,23.4464681 C46.2760801,23.4464681 43.5454262,20.6528015 43.5454262,16.8525267 C43.5454262,13.1529553 46.2254956,10.2586385 50.1445108,10.2586385 C54.0129949,10.2586385 56.4149565,13.4549059 56.4149565,16.9028784" id="Fill-4" fill="#FFFFFF"></path>
                    <polygon id="Fill-6" fill="#FFFFFF" points="58.7811141 5.72764872 60.449761 4.77208278 60.449761 23.1444326 58.7811141 23.1444326"></polygon>
                    <polygon id="Fill-8" fill="#FFFFFF" points="63.9896489 5.72764872 65.6583492 4.77208278 65.6583492 23.1444326 63.9896489 23.1444326"></polygon>
                    <path d="M79.3469743,16.8525533 C79.3469743,14.0589929 77.1725361,11.8693335 74.3660055,11.8693335 C71.559475,11.8693335 69.3850367,14.0589929 69.3850367,16.8525533 C69.3850367,19.64622 71.559475,21.8357731 74.3660055,21.8357731 C77.1725361,21.8357731 79.3469743,19.64622 79.3469743,16.8525533 M67.7162831,16.8525533 C67.7162831,13.127806 70.674567,10.2586119 74.3660055,10.2586119 C78.057444,10.2586119 81.0156746,13.127806 81.0156746,16.8525533 C81.0156746,20.5773005 78.057444,23.4464416 74.3660055,23.4464416 C70.674567,23.4464416 67.7162831,20.5773005 67.7162831,16.8525533" id="Fill-10" fill="#FFFFFF"></path>
                    <path d="M82.861746,16.8525533 C82.861746,13.1026302 85.693462,10.2082603 89.5367606,10.2082603 C92.0145989,10.2082603 94.1636915,11.5170844 95.2003528,13.4548793 L92.3938223,15.0907767 C91.8881377,14.0589929 90.800892,13.4045808 89.5114684,13.4045808 C87.5645536,13.4045808 86.1233766,14.839231 86.1233766,16.8525533 C86.1233766,18.8408592 87.5645536,20.27535 89.5114684,20.27535 C90.8261842,20.27535 91.9134833,19.64622 92.4190612,18.6142767 L95.2509907,20.2250515 C94.1636915,22.1880222 92.0145989,23.4968463 89.5367606,23.4968463 C85.693462,23.4968463 82.861746,20.6024764 82.861746,16.8525533" id="Fill-12" fill="#FFFFFF"></path>
                    <path d="M106.224655,16.8525533 C106.224655,14.8140551 104.732947,13.3793518 102.786192,13.3793518 C100.864516,13.3793518 99.3728079,14.8140551 99.3728079,16.8525533 C99.3728079,18.8912108 100.864516,20.3257016 102.786192,20.3257016 C104.732947,20.3257016 106.224655,18.8912108 106.224655,16.8525533 M96.1111773,16.8525533 C96.1111773,13.1026302 99.0693012,10.2082603 102.786192,10.2082603 C106.502869,10.2082603 109.486285,13.1026302 109.486285,16.8525533 C109.486285,20.6024764 106.502869,23.4968463 102.786192,23.4968463 C99.0693012,23.4968463 96.1111773,20.6024764 96.1111773,16.8525533" id="Fill-14" fill="#FFFFFF"></path>
                    <path d="M123.161384,15.41802 L123.161384,23.1443954 L119.899753,23.1443954 L119.899753,15.8206207 C119.899753,14.1091958 118.863039,13.2284668 117.396623,13.2284668 C115.803692,13.2284668 114.615331,14.1595474 114.615331,16.3492599 L114.615331,23.1443954 L111.3537,23.1443954 L111.3537,10.5606793 L114.615331,10.5606793 L114.615331,11.9700474 C115.373831,10.8375603 116.688654,10.2082709 118.38254,10.2082709 C121.062716,10.2082709 123.161384,12.0707507 123.161384,15.41802" id="Fill-16" fill="#FFFFFF"></path>
                    <path d="M130.317239,13.6814299 L130.317239,18.9163548 C130.317239,20.2753712 131.303369,20.3005471 133.174301,20.1998438 L133.174301,23.144406 C128.597901,23.6478694 127.055608,22.3138694 127.055608,18.9163548 L127.055608,13.6814299 L124.855931,13.6814299 L124.855931,10.5606899 L127.055608,10.5606899 L127.055608,8.01872839 L130.317239,6.15125586 L130.317239,10.5606899 L133.174301,10.5606899 L133.174301,13.6814299 L130.317239,13.6814299 Z" id="Fill-18" fill="#FFFFFF"></path>
                    <path d="M144.70409,16.8525533 C144.70409,14.7385277 143.212328,13.3038775 141.189697,13.3038775 C139.192198,13.3038775 137.70049,14.7385277 137.70049,16.8525533 C137.70049,18.9665789 139.192198,20.4012291 141.189697,20.4012291 C143.212328,20.4012291 144.70409,18.9665789 144.70409,16.8525533 L144.70409,16.8525533 Z M147.96572,10.5606687 L147.96572,23.1443848 L144.70409,23.1443848 L144.70409,21.6595423 C143.793836,22.7921357 142.428536,23.4968463 140.58279,23.4968463 C137.220151,23.4968463 134.438806,20.6024764 134.438806,16.8525533 C134.438806,13.1026302 137.220151,10.2082603 140.58279,10.2082603 C142.428536,10.2082603 143.793836,10.9129178 144.70409,12.0455643 L144.70409,10.5606687 L147.96572,10.5606687 Z" id="Fill-20" fill="#FFFFFF"></path>
                    <mask id="mask-2" fill="white">
                        <use xlink:href="#path-1"></use>
                    </mask>
                    <g id="Clip-23"></g>
                    <path d="M150.779796,23.1443901 L154.041427,23.1443901 L154.041427,10.560674 L150.779796,10.560674 L150.779796,23.1443901 Z M150.400573,7.06234982 C150.400573,5.98021429 151.310666,5.04897436 152.397965,5.04897436 C153.510503,5.04897436 154.420703,5.98021429 154.420703,7.06234982 C154.420703,8.14459158 153.510503,9.05065568 152.397965,9.05065568 C151.310666,9.05065568 150.400573,8.14459158 150.400573,7.06234982 L150.400573,7.06234982 Z" id="Fill-22" fill="#FFFFFF" mask="url(#mask-2)"></path>
                    <path d="M168.832686,15.41802 L168.832686,23.1443954 L165.571056,23.1443954 L165.571056,15.8206207 C165.571056,14.1091958 164.534394,13.2284668 163.067925,13.2284668 C161.475048,13.2284668 160.286633,14.1595474 160.286633,16.3492599 L160.286633,23.1443954 L157.025003,23.1443954 L157.025003,10.5606793 L160.286633,10.5606793 L160.286633,11.9700474 C161.045187,10.8375603 162.360009,10.2082709 164.053895,10.2082709 C166.734071,10.2082709 168.832686,12.0707507 168.832686,15.41802" id="Fill-24" fill="#FFFFFF" mask="url(#mask-2)"></path>
                    <path d="M180.477902,15.6697357 C180.073279,13.8576606 178.708033,13.1278273 177.342732,13.1278273 C175.598102,13.1278273 174.409687,14.0590141 174.030517,15.6697357 L180.477902,15.6697357 Z M177.646079,20.5520929 C178.910317,20.5520929 179.921686,20.0236661 180.477902,19.2937797 L183.10744,20.8038511 C181.919079,22.5152229 180.022748,23.4968145 177.595441,23.4968145 C173.347894,23.4968145 170.667718,20.6024445 170.667718,16.8525745 C170.667718,13.1025984 173.373186,10.2082815 177.342732,10.2082815 C181.084702,10.2082815 183.739532,13.15295 183.739532,16.8525745 C183.739532,17.3306496 183.689001,17.7585855 183.613125,18.1863621 L174.081102,18.1863621 C174.536148,19.8474353 175.926741,20.5520929 177.646079,20.5520929 L177.646079,20.5520929 Z" id="Fill-25" fill="#FFFFFF" mask="url(#mask-2)"></path>
                    <path d="M192.975615,10.3089529 L192.975615,13.9331562 C191.281569,13.7318027 189.132476,14.4868119 189.132476,17.1294236 L189.132476,23.1444273 L185.870846,23.1444273 L185.870846,10.5606581 L189.132476,10.5606581 L189.132476,12.7250353 C189.789808,11.0136636 191.382685,10.3089529 192.975615,10.3089529" id="Fill-26" fill="#FFFFFF" mask="url(#mask-2)"></path>
                    <path d="M22.4418605,0 L7.98183933,8.40305185 L0.748062016,4.19049997 L0.748062016,12.6155506 L7.98183933,16.8281025 L22.4418605,8.4160173 L22.4418605,0 Z M7.98183933,19.8313596 L0.748062016,15.6188078 L0.748062016,24.0438584 L7.98183933,28.2564103 L22.4418605,19.8443251 L22.4418605,11.4283078 L7.98183933,19.8313596 Z" id="Fill-1" fill="#FFFFFF" mask="url(#mask-2)"></path>
                </g>
            </g>
        </g>
    </g>
</svg>